<svg xmlns:dc="http://purl.org/dc/elements/1.1/" xmlns:cc="http://creativecommons.org/ns#" xmlns:rdf="http://www.w3.org/1999/02/22-rdf-syntax-ns#" xmlns:svg="http://www.w3.org/2000/svg" xmlns="http://www.w3.org/2000/svg" viewBox="0 0 151 136" height="136" width="151"><defs id="defs3359"><clipPath id="clipPath3387" clipPathUnits="userSpaceOnUse"><path id="path3389" d="M142.293 245.191l494.93 337.36L74.8398 348.098"></path></clipPath><linearGradient id="linearGradient3391" spreadMethod="pad" gradientTransform="matrix(-493.8,-339.007,339.007,-493.8,601.845,634.081)" gradientUnits="userSpaceOnUse" y2="0" x2="1" y1="0" x1="0"><stop id="stop3393" offset="0" style="stop-opacity:1;stop-color:#ffffff"></stop><stop id="stop3395" offset="1" style="stop-opacity:1;stop-color:#80c64c"></stop></linearGradient><clipPath id="clipPath3405" clipPathUnits="userSpaceOnUse"><path id="path3407" d="M85.2852 570.719 516.813 593.84 54.5195 690.582"></path></clipPath><linearGradient id="linearGradient3409" spreadMethod="pad" gradientTransform="matrix(-304.079,-208.759,208.759,-304.079,420.197,734.568)" gradientUnits="userSpaceOnUse" y2="0" x2="1" y1="0" x1="0"><stop id="stop3411" offset="0" style="stop-opacity:1;stop-color:#ffffff"></stop><stop id="stop3413" offset="1" style="stop-opacity:1;stop-color:#22437e"></stop></linearGradient><clipPath id="clipPath3423" clipPathUnits="userSpaceOnUse"><path id="path3425" d="m538.137 270.234 95.324 293.5-205.699-247.089"></path></clipPath><linearGradient id="linearGradient3427" spreadMethod="pad" gradientTransform="matrix(-255.101,-175.134,175.134,-255.101,686.667,486.234)" gradientUnits="userSpaceOnUse" y2="0" x2="1" y1="0" x1="0"><stop id="stop3429" offset="0" style="stop-opacity:1;stop-color:#ffffff"></stop><stop id="stop3431" offset="1" style="stop-opacity:1;stop-color:#65a5de"></stop></linearGradient><clipPath id="clipPath3441" clipPathUnits="userSpaceOnUse"><path id="path3443" d="M857.758 94.3906 656.035 546.801 745.172 53.6406"></path></clipPath><linearGradient id="linearGradient3445" spreadMethod="pad" gradientTransform="matrix(-102.35,-449.574,449.574,-102.35,800.888,513.826)" gradientUnits="userSpaceOnUse" y2="0" x2="1" y1="0" x1="0"><stop id="stop3447" offset="0" style="stop-opacity:1;stop-color:#ffffff"></stop><stop id="stop3449" offset="1" style="stop-opacity:1;stop-color:#c6da3a"></stop></linearGradient><clipPath id="clipPath3459" clipPathUnits="userSpaceOnUse"><path id="path3461" d="M481.316 864.746 635.938 602.125l-41.313 301.32"></path></clipPath><linearGradient id="linearGradient3463" spreadMethod="pad" gradientTransform="matrix(67.7401,274.401,-274.401,67.7401,532.514,627.656)" gradientUnits="userSpaceOnUse" y2="0" x2="1" y1="0" x1="0"><stop id="stop3465" offset="0" style="stop-opacity:1;stop-color:#ffffff"></stop><stop id="stop3467" offset="1" style="stop-opacity:1;stop-color:#c6da3a"></stop></linearGradient><clipPath id="clipPath3477" clipPathUnits="userSpaceOnUse"><path id="path3479" d="M1085.54 913.828 683.598 585.359l456.522 219.75"></path></clipPath><linearGradient id="linearGradient3481" spreadMethod="pad" gradientTransform="matrix(441.375,262.068,-262.068,441.375,675.147,599.59)" gradientUnits="userSpaceOnUse" y2="0" x2="1" y1="0" x1="0"><stop id="stop3483" offset="0" style="stop-opacity:1;stop-color:#ffffff"></stop><stop id="stop3485" offset="1" style="stop-opacity:1;stop-color:#22638b"></stop></linearGradient><clipPath id="clipPath3495" clipPathUnits="userSpaceOnUse"><path id="path3497" d="M1177.19 335.031 693.664 556.211 1106.69 235.887"></path></clipPath><linearGradient id="linearGradient3499" spreadMethod="pad" gradientTransform="matrix(450.785,-274.875,274.875,450.785,694.818,558.101)" gradientUnits="userSpaceOnUse" y2="0" x2="1" y1="0" x1="0"><stop id="stop3501" offset="0" style="stop-opacity:1;stop-color:#ffffff"></stop><stop id="stop3503" offset="1" style="stop-opacity:1;stop-color:#a6dbe7"></stop></linearGradient><clipPath id="clipPath3513" clipPathUnits="userSpaceOnUse"><path id="path3515" d="M209.754 773.73l382.32-187.417L280.926 872.391"></path></clipPath><linearGradient id="linearGradient3517" spreadMethod="pad" gradientTransform="matrix(-360.263,223.047,-223.047,-360.263,601.957,602.271)" gradientUnits="userSpaceOnUse" y2="0" x2="1" y1="0" x1="0"><stop id="stop3519" offset="0" style="stop-opacity:1;stop-color:#ffffff"></stop><stop id="stop3521" offset="1" style="stop-opacity:1;stop-color:#a6dbe7"></stop></linearGradient></defs><g transform="matrix(1.25,0,0,-1.25,0,135.7375)" id="g3363"><g transform="scale(0.1,0.1)" id="g3365"><path id="path3381" style="fill:#696566;fill-opacity:1;fill-rule:nonzero;stroke:none" d="m597.898 989.039c-236.39.0-428.714-192.324-428.714-428.719.0-236.39 192.324-428.715 428.714-428.715 236.395.0 428.722 192.325 428.722 428.715.0 236.395-192.327 428.719-428.722 428.719zm0-954.289c-289.796.0-525.566 235.773-525.566 525.57s235.77 525.57 525.566 525.57c289.801.0 525.572-235.773 525.572-525.57S887.699 34.75 597.898 34.75"></path><g id="g3383"><g clip-path="url(#clipPath3387)" id="g3385"><path id="path3397" style="fill:url(#linearGradient3391);fill-opacity:1;fill-rule:nonzero;stroke:none" d="M142.293 245.191l494.93 337.36L74.8398 348.098"></path></g></g><path id="path3399" style="fill:#62b92c;fill-opacity:1;fill-rule:nonzero;stroke:none" d="m167.938 304.09c-4.524 34.332-36.024 58.496-70.356 53.973-34.332-4.52-58.5-36.02-53.9765-70.352 4.5234-34.336 36.0234-58.5 70.3555-53.977 34.332 4.524 58.5 36.02 53.977 70.356"></path><g id="g3401"><g clip-path="url(#clipPath3405)" id="g3403"><path id="path3415" style="fill:url(#linearGradient3409);fill-opacity:1;fill-rule:nonzero;stroke:none" d="M85.2852 570.719 516.813 593.84 54.5195 690.582"></path></g></g><path id="path3417" style="fill:#133a73;fill-opacity:1;fill-rule:nonzero;stroke:none" d="m124.875 636.605c-4.523 34.333-36.0234 58.5-70.3555 53.977C20.1875 686.059-3.98047 654.559.542969 620.227 5.06641 585.895 36.5664 561.727 70.8984 566.25c34.3356 4.523 58.4996 36.023 53.9766 70.355"></path><g id="g3419"><g clip-path="url(#clipPath3423)" id="g3421"><path id="path3433" style="fill:url(#linearGradient3427);fill-opacity:1;fill-rule:nonzero;stroke:none" d="m538.137 270.234 95.324 293.5-205.699-247.089"></path></g></g><path id="path3435" style="fill:#4194d7;fill-opacity:1;fill-rule:nonzero;stroke:none" d="m541.352 289.715c-4.524 34.332-36.024 58.5-70.356 53.973-34.336-4.52-58.5-36.02-53.976-70.352 4.523-34.336 36.023-58.5 70.355-53.977 34.332 4.524 58.496 36.024 53.977 70.356"></path><g id="g3437"><g clip-path="url(#clipPath3441)" id="g3439"><path id="path3451" style="fill:url(#linearGradient3445);fill-opacity:1;fill-rule:nonzero;stroke:none" d="M857.758 94.3906 656.035 546.801 745.172 53.6406"></path></g></g><path id="path3453" style="fill:#b9d110;fill-opacity:1;fill-rule:nonzero;stroke:none" d="m846.91 110.883c-26.609 22.164-66.144 18.558-88.308-8.051-22.164-26.6132-18.559-66.1406 8.05-88.3125 26.61-22.16013 66.145-18.55075 88.309 8.0586 22.164 26.6016 18.559 66.1446-8.051 88.3049"></path><g id="g3455"><g clip-path="url(#clipPath3459)" id="g3457"><path id="path3469" style="fill:url(#linearGradient3463);fill-opacity:1;fill-rule:nonzero;stroke:none" d="M481.316 864.746 635.938 602.125l-41.313 301.32"></path></g></g><path id="path3471" style="fill:#b9d110;fill-opacity:1;fill-rule:nonzero;stroke:none" d="m491.863 848.059c26.203-22.645 65.797-19.758 88.442 6.441 22.64 26.203 19.758 65.797-6.446 88.441-26.199 22.645-65.796 19.758-88.437-6.445-22.645-26.199-19.762-65.797 6.441-88.437"></path><g id="g3473"><g clip-path="url(#clipPath3477)" id="g3475"><path id="path3487" style="fill:url(#linearGradient3481);fill-opacity:1;fill-rule:nonzero;stroke:none" d="M1085.54 913.828 683.598 585.359l456.522 219.75"></path></g></g><path id="path3489" style="fill:#22638b;fill-opacity:1;fill-rule:nonzero;stroke:none" d="m1050.12 855.145c2.26-34.555 32.1-60.743 66.66-58.485 34.55 2.254 60.74 32.098 58.48 66.653-2.25 34.554-32.09 60.742-66.65 58.484-34.56-2.254-60.74-32.098-58.49-66.652"></path><g id="g3491"><g clip-path="url(#clipPath3495)" id="g3493"><path id="path3505" style="fill:url(#linearGradient3499);fill-opacity:1;fill-rule:nonzero;stroke:none" d="M1177.19 335.031 693.664 556.211 1106.69 235.887"></path></g></g><path id="path3507" style="fill:#91d2e1;fill-opacity:1;fill-rule:nonzero;stroke:none" d="m1108.75 338.84c-29.47-18.176-38.63-56.805-20.46-86.281 18.18-29.477 56.81-38.637 86.29-20.461 29.47 18.179 38.63 56.808 20.45 86.285-18.17 29.476-56.8 38.637-86.28 20.457"></path><g id="g3509"><g clip-path="url(#clipPath3513)" id="g3511"><path id="path3523" style="fill:url(#linearGradient3517);fill-opacity:1;fill-rule:nonzero;stroke:none" d="M209.754 773.73l382.32-187.417L280.926 872.391"></path></g></g><path id="path3525" style="fill:#91d2e1;fill-opacity:1;fill-rule:nonzero;stroke:none" d="m278.168 769.453c29.598 17.977 39.02 56.543 21.043 86.145-17.977 29.597-56.543 39.019-86.145 21.043-29.597-17.977-39.019-56.543-21.043-86.141 17.977-29.602 56.543-39.023 86.145-21.047"></path><path id="path3527" style="fill:#62b92c;fill-opacity:1;fill-rule:nonzero;stroke:none" d="m714.422 718.262c8.172-9.321 22.351-10.246 31.672-2.074 9.316 8.175 10.246 22.355 2.07 31.675-8.172 9.317-22.351 10.246-31.672 2.071-9.316-8.172-10.246-22.356-2.07-31.672"></path><path id="path3529" style="fill:#62b92c;fill-opacity:1;fill-rule:nonzero;stroke:none" d="m827.305 484.969c8.175-9.321 22.355-10.25 31.672-2.074 9.32 8.171 10.25 22.355 2.074 31.671-8.172 9.321-22.356 10.247-31.672 2.075-9.32-8.176-10.246-22.356-2.074-31.672"></path><path id="path3531" style="fill:#62b92c;fill-opacity:1;fill-rule:nonzero;stroke:none" d="m906.813 877.289c8.175-9.316 22.355-10.246 31.675-2.07 9.317 8.172 10.246 22.351 2.071 31.672-8.172 9.32-22.356 10.246-31.672 2.074-9.321-8.176-10.246-22.356-2.074-31.676"></path><path id="path3533" style="fill:#62b92c;fill-opacity:1;fill-rule:nonzero;stroke:none" d="m987.531 166.984c8.172-9.32 22.359-10.246 31.669-2.074 9.32 8.176 10.25 22.356 2.08 31.676-8.18 9.316-22.358 10.242-31.678 2.07-9.317-8.176-10.247-22.355-2.071-31.672"></path><path id="path3535" style="fill:#62b92c;fill-opacity:1;fill-rule:nonzero;stroke:none" d="m140.008 473.707c8.172-9.32 22.351-10.246 31.672-2.074 9.316 8.176 10.246 22.355 2.074 31.676-8.176 9.316-22.356 10.246-31.676 2.07-9.316-8.172-10.246-22.356-2.07-31.672"></path><path id="path3537" style="fill:#62b92c;fill-opacity:1;fill-rule:nonzero;stroke:none" d="m609.063 315.641c8.171-9.321 22.355-10.246 31.671-2.075 9.321 8.176 10.246 22.356 2.075 31.676-8.176 9.317-22.356 10.246-31.676 2.071-9.317-8.172-10.246-22.352-2.07-31.672"></path><path id="path3539" style="fill:#62b92c;fill-opacity:1;fill-rule:nonzero;stroke:none" d="m458.551 398.422c8.172-9.317 22.351-10.246 31.672-2.07 9.32 8.171 10.246 22.351 2.074 31.671-8.176 9.317-22.356 10.247-31.676 2.071-9.316-8.172-10.246-22.352-2.07-31.672"></path><path id="path3541" style="fill:#133a73;fill-opacity:1;fill-rule:nonzero;stroke:none" d="m518.754 661.82c8.176-9.32 22.355-10.246 31.672-2.074 9.32 8.176 10.25 22.356 2.074 31.676-8.176 9.316-22.355 10.246-31.672 2.07-9.32-8.172-10.25-22.355-2.074-31.672"></path><path id="path3543" style="fill:#133a73;fill-opacity:1;fill-rule:nonzero;stroke:none" d="m744.523 394.66c8.172-9.32 22.356-10.246 31.672-2.074 9.321 8.176 10.246 22.355 2.075 31.676-8.176 9.316-22.356 10.246-31.672 2.07-9.321-8.172-10.25-22.355-2.075-31.672"></path><path id="path3545" style="fill:#133a73;fill-opacity:1;fill-rule:nonzero;stroke:none" d="m714.422 605.379c8.172-9.32 22.351-10.246 31.672-2.074 9.316 8.172 10.246 22.355 2.07 31.672-8.172 9.32-22.351 10.246-31.672 2.074-9.316-8.176-10.246-22.356-2.07-31.672"></path><path id="path3547" style="fill:#133a73;fill-opacity:1;fill-rule:nonzero;stroke:none" d="m368.242 469.918c8.172-9.32 22.356-10.25 31.672-2.074 9.32 8.172 10.246 22.355 2.074 31.672-8.175 9.32-22.355 10.246-31.675 2.074-9.317-8.176-10.247-22.356-2.071-31.672"></path><path id="path3549" style="fill:#4194d7;fill-opacity:1;fill-rule:nonzero;stroke:none" d="m633.461 620.176c8.172-9.317 22.355-10.246 31.672-2.071 9.32 8.172 10.246 22.356 2.074 31.672-8.176 9.321-22.355 10.246-31.676 2.075-9.316-8.176-10.246-22.356-2.07-31.676"></path><path id="path3551" style="fill:#4194d7;fill-opacity:1;fill-rule:nonzero;stroke:none" d="m646.691 752.129c8.172-9.32 22.352-10.25 31.672-2.074 9.321 8.172 10.246 22.355 2.075 31.672-8.176 9.32-22.356 10.246-31.676 2.074-9.317-8.176-10.246-22.356-2.071-31.672"></path><path id="path3553" style="fill:#4194d7;fill-opacity:1;fill-rule:nonzero;stroke:none" d="m819.777 334.453c8.176-9.316 22.356-10.246 31.676-2.07 9.317 8.172 10.246 22.351 2.07 31.672-8.171 9.32-22.351 10.246-31.671 2.074-9.321-8.176-10.247-22.356-2.075-31.676"></path><path id="path3555" style="fill:#4194d7;fill-opacity:1;fill-rule:nonzero;stroke:none" d="m812.242 571.512c8.176-9.321 22.356-10.246 31.676-2.074 9.316 8.175 10.246 22.355 2.07 31.675-8.172 9.317-22.351 10.246-31.672 2.071-9.316-8.172-10.246-22.356-2.074-31.672"></path><path id="path3557" style="fill:#4194d7;fill-opacity:1;fill-rule:nonzero;stroke:none" d="m382.156 392.988c8.172-9.316 22.356-10.246 31.672-2.07 9.32 8.172 10.246 22.355 2.074 31.672-8.175 9.32-22.355 10.246-31.672 2.074-9.32-8.176-10.25-22.355-2.074-31.676"></path><path id="path3559" style="fill:#4194d7;fill-opacity:1;fill-rule:nonzero;stroke:none" d="m613.543 476.398c8.176-9.32 22.355-10.25 31.676-2.074 9.316 8.176 10.246 22.356 2.07 31.672-8.172 9.32-22.355 10.246-31.672 2.074-9.32-8.175-10.246-22.355-2.074-31.672"></path><path id="path3561" style="fill:#4194d7;fill-opacity:1;fill-rule:nonzero;stroke:none" d="m435.969 645.902c8.172-9.32 22.351-10.246 31.672-2.074 9.32 8.176 10.246 22.356 2.074 31.676-8.176 9.316-22.356 10.246-31.676 2.07-9.316-8.172-10.246-22.355-2.07-31.672"></path><path id="path3563" style="fill:#4194d7;fill-opacity:1;fill-rule:nonzero;stroke:none" d="m629.688 164.293c8.171-9.32 22.355-10.246 31.671-2.074 9.321 8.176 10.246 22.355 2.075 31.676-8.176 9.316-22.356 10.246-31.672 2.07-9.321-8.172-10.25-22.356-2.074-31.672"></path><path id="path3565" style="fill:#b9d110;fill-opacity:1;fill-rule:nonzero;stroke:none" d="m499.398 462.395c12.329-1.301 23.379 7.632 24.684 19.96 1.305 12.325-7.633 23.375-19.961 24.68-12.324 1.305-23.375-7.633-24.68-19.957-1.304-12.328 7.633-23.379 19.957-24.683"></path><path id="path3567" style="fill:#b9d110;fill-opacity:1;fill-rule:nonzero;stroke:none" d="m721.23 510.641c-12.3 1.527-23.511-7.207-25.039-19.508-1.527-12.301 7.207-23.512 19.508-25.039 12.301-1.528 23.512 7.207 25.039 19.508 1.528 12.3-7.207 23.507-19.508 25.039"></path><path id="path3569" style="fill:#22638b;fill-opacity:1;fill-rule:nonzero;stroke:none" d="m594.34 420.676c-7.543 9.836-21.629 11.695-31.469 4.152-9.836-7.543-11.691-21.633-4.148-31.469s21.632-11.695 31.468-4.152 11.696 21.633 4.149 31.469"></path><path id="path3571" style="fill:#22638b;fill-opacity:1;fill-rule:nonzero;stroke:none" d="m594.828 581.156c-7.543 9.836-21.633 11.696-31.469 4.153s-11.695-21.633-4.152-31.469c7.547-9.836 21.633-11.695 31.469-4.152 9.836 7.542 11.695 21.632 4.152 31.468"></path><path id="path3573" style="fill:#91d2e1;fill-opacity:1;fill-rule:nonzero;stroke:none" d="m458.199 576.973c5.156 11.273.199 24.59-11.07 29.75-11.274 5.156-24.59.199-29.746-11.071-5.16-11.273-.203-24.589 11.066-29.75 11.274-5.156 24.594-.199 29.75 11.071"></path><path id="path3575" style="fill:#91d2e1;fill-opacity:1;fill-rule:nonzero;stroke:none" d="m635.691 569.449c-5.234-11.234-.367-24.59 10.868-29.82 11.238-5.234 24.589-.371 29.824 10.867 5.234 11.234.367 24.586-10.867 29.82-11.239 5.235-24.59.372-29.825-10.867"></path></g></g></svg>
